Coordinates
version=1
nRows=41
nColumns=38
inDegrees=no

Units are S.I. units (second, meters, Newtons, ...)
If the header above contains a line with 'inDegrees', this indicates whether rotational values are in degrees (yes) or radians (no).

endheader
time	pelvis_tilt	pelvis_list	pelvis_rotation	pelvis_tx	pelvis_ty	pelvis_tz	hip_flexion_r	hip_adduction_r	hip_rotation_r	knee_angle_r	ankle_angle_r	subtalar_angle_r	mtp_angle_r	hip_flexion_l	hip_adduction_l	hip_rotation_l	knee_angle_l	ankle_angle_l	subtalar_angle_l	mtp_angle_l	lumbar_extension	lumbar_bending	lumbar_rotation	arm_flex_r	arm_add_r	arm_rot_r	elbow_flex_r	pro_sup_r	wrist_flex_r	wrist_dev_r	arm_flex_l	arm_add_l	arm_rot_l	elbow_flex_l	pro_sup_l	wrist_flex_l	wrist_dev_l
1.28	0.212477	1.43482	-1.73798	1.05982	0.220396	0.936191	0.336259	-0.181802	-0.379184	0.468401	0.0907892	0	0	-0.314588	0.058171	-0.10839	0.0682565	0.221556	0	0	-0.270124	-0.0464655	-0.21609	-0.197714	-0.182947	0.0921778	0.646579	0.524148	0	0	0.0388107	-0.463911	0.214406	0.792925	1.31549	0	0
1.29	0.22468	1.43787	-1.75501	1.05844	0.211655	0.934012	0.339392	-0.172862	-0.378612	0.414598	0.0984753	0	0	-0.322149	0.0590116	-0.113245	0.0684053	0.230566	0	0	-0.26856	-0.0475633	-0.21043	-0.194104	-0.18241	0.0907447	0.650278	0.525225	0	0	0.049794	-0.465907	0.218223	0.794208	1.31682	0	0
1.3	0.237623	1.44105	-1.77294	1.05699	0.202853	0.931812	0.34107	-0.162769	-0.373269	0.360378	0.10419	0	0	-0.328695	0.0594878	-0.119425	0.0705767	0.239923	0	0	-0.266784	-0.0486399	-0.20463	-0.190381	-0.181853	0.0894752	0.653326	0.526424	0	0	0.0608714	-0.467166	0.221898	0.793949	1.31921	0	0
1.31	0.251735	1.44429	-1.79146	1.05554	0.194016	0.929628	0.341031	-0.15219	-0.363318	0.306141	0.10614	0	0	-0.334082	0.0595094	-0.125737	0.0749427	0.250149	0	0	-0.265106	-0.0495388	-0.199175	-0.186358	-0.181291	0.0887949	0.655322	0.52768	0	0	0.0722878	-0.467627	0.225431	0.791934	1.32202	0	0
1.32	0.262026	1.44716	-1.80542	1.05405	0.185075	0.927516	0.338248	-0.140812	-0.349323	0.252031	0.102491	0	0	-0.338616	0.0583898	-0.133111	0.0822896	0.262105	0	0	-0.264003	-0.0497372	-0.194243	-0.182455	-0.180597	0.0880065	0.656751	0.529431	0	0	0.0837107	-0.467479	0.229056	0.788601	1.32626	0	0
1.33	0.271425	1.44946	-1.81713	1.05259	0.175883	0.925488	0.333009	-0.130074	-0.334693	0.200874	0.0948201	0	0	-0.342975	0.0564789	-0.140591	0.091861	0.274932	0	0	-0.263213	-0.0496603	-0.19089	-0.178771	-0.179797	0.0875661	0.657344	0.53099	0	0	0.0943603	-0.467047	0.232382	0.784919	1.33123	0	0
1.34	0.282876	1.45133	-1.82921	1.05123	0.166363	0.9235	0.327479	-0.121657	-0.324775	0.158371	0.0869405	0	0	-0.347322	0.05416	-0.147436	0.102763	0.286865	0	0	-0.262216	-0.0495879	-0.189422	-0.175822	-0.178995	0.087374	0.657573	0.532105	0	0	0.103682	-0.466469	0.235432	0.781071	1.33574	0	0
1.35	0.293465	1.45261	-1.83885	1.04993	0.156541	0.9216	0.322499	-0.115582	-0.321026	0.127643	0.079752	0	0	-0.35187	0.0511445	-0.153319	0.115059	0.298097	0	0	-0.261288	-0.0491484	-0.189504	-0.173809	-0.178275	0.0872917	0.65764	0.532592	0	0	0.111854	-0.465814	0.238935	0.776654	1.33974	0	0
1.36	0.297397	1.45331	-1.84032	1.04871	0.146453	0.91986	0.317767	-0.110775	-0.321379	0.108678	0.0719291	0	0	-0.356575	0.0466957	-0.158714	0.129156	0.309557	0	0	-0.260813	-0.0475567	-0.191048	-0.172394	-0.177676	0.0869905	0.657554	0.532509	0	0	0.118689	-0.464523	0.241626	0.771638	1.34449	0	0
1.37	0.293274	1.45369	-1.83233	1.04762	0.136102	0.918281	0.313403	-0.10688	-0.323856	0.101119	0.0634144	0	0	-0.361428	0.0406932	-0.163342	0.14455	0.320535	0	0	-0.260538	-0.0444766	-0.194076	-0.17159	-0.177519	0.087011	0.657321	0.532142	0	0	0.123819	-0.462235	0.242722	0.766402	1.34933	0	0
1.38	0.281868	1.45393	-1.81594	1.04664	0.125452	0.91686	0.309838	-0.103808	-0.327191	0.105601	0.0556347	0	0	-0.366437	0.0332829	-0.167044	0.160834	0.330421	0	0	-0.260119	-0.0400107	-0.198196	-0.171686	-0.177946	0.0872604	0.657211	0.53177	0	0	0.127852	-0.459272	0.243551	0.760763	1.35373	0	0
1.39	0.2661	1.45402	-1.79452	1.04571	0.114482	0.915574	0.30772	-0.101786	-0.331782	0.122598	0.0510134	0	0	-0.371707	0.0249426	-0.170034	0.177649	0.339014	0	0	-0.259318	-0.0346164	-0.203028	-0.172912	-0.178662	0.086786	0.65731	0.531083	0	0	0.130617	-0.455976	0.244539	0.755078	1.3576	0	0
1.4	0.250816	1.45401	-1.77324	1.04479	0.103175	0.914383	0.307196	-0.101145	-0.339515	0.149197	0.0502789	0	0	-0.377129	0.0162976	-0.172869	0.194814	0.346021	0	0	-0.25776	-0.0290168	-0.208427	-0.175152	-0.179679	0.0860749	0.657365	0.529969	0	0	0.13132	-0.452343	0.244841	0.74986	1.36095	0	0
1.41	0.236834	1.45409	-1.75322	1.04386	0.0916297	0.913318	0.307362	-0.101355	-0.348246	0.178074	0.0491299	0	0	-0.382108	0.00742257	-0.175864	0.212856	0.351129	0	0	-0.255583	-0.023343	-0.214177	-0.178006	-0.181081	0.0856025	0.657463	0.528824	0	0	0.129567	-0.448079	0.243105	0.745492	1.36413	0	0
1.42	0.216065	1.45424	-1.72657	1.04281	0.0799845	0.91252	0.306887	-0.100552	-0.355079	0.201534	0.0400952	0	0	-0.386122	-0.00296939	-0.17989	0.232851	0.354495	0	0	-0.253475	-0.0167664	-0.219697	-0.181017	-0.182606	0.0849429	0.657408	0.527845	0	0	0.126884	-0.44335	0.24041	0.741151	1.36715	0	0
1.43	0.178788	1.45401	-1.68404	1.04156	0.068402	0.912139	0.305455	-0.0974948	-0.359558	0.219731	0.0215247	0	0	-0.389037	-0.0159556	-0.185789	0.255904	0.356113	0	0	-0.252402	-0.00818021	-0.224482	-0.183274	-0.184256	0.084041	0.656606	0.526867	0	0	0.123648	-0.437871	0.236559	0.736518	1.36967	0	0
1.44	0.123907	1.453	-1.62475	1.04011	0.05691	0.912212	0.30288	-0.0924061	-0.363548	0.237394	0.00032292	0	0	-0.390474	-0.0318162	-0.194364	0.283241	0.35589	0	0	-0.252651	0.0025525	-0.228186	-0.18465	-0.185992	0.0830047	0.654855	0.525894	0	0	0.120197	-0.431671	0.231719	0.731294	1.3713	0	0
1.45	0.0597648	1.45153	-1.55679	1.03845	0.0453726	0.912617	0.299727	-0.0863675	-0.368752	0.257388	-0.0158149	0	0	-0.389584	-0.04978	-0.204036	0.315125	0.353099	0	0	-0.25318	0.0144956	-0.23108	-0.185808	-0.187811	0.0824219	0.652337	0.524864	0	0	0.11608	-0.425111	0.225988	0.726029	1.37268	0	0
1.46	-0.0033004	1.45013	-1.49027	1.03667	0.0336899	0.913226	0.29719	-0.0804678	-0.373612	0.280131	-0.0242082	0	0	-0.385406	-0.0686545	-0.213005	0.351858	0.347021	0	0	-0.252947	0.0263828	-0.233495	-0.187478	-0.189881	0.0826063	0.649649	0.523667	0	0	0.110511	-0.418365	0.219643	0.721106	1.37397	0	0
1.47	-0.0580048	1.44908	-1.43225	1.03483	0.021815	0.913937	0.295852	-0.0752779	-0.375553	0.30544	-0.025585	0	0	-0.377086	-0.0875771	-0.219912	0.394276	0.336634	0	0	-0.251322	0.0370963	-0.236046	-0.190094	-0.19202	0.0829453	0.64731	0.52209	0	0	0.103233	-0.411955	0.213688	0.717354	1.37511	0	0
1.48	-0.102988	1.44964	-1.38491	1.03283	0.00985595	0.914608	0.296505	-0.0703017	-0.372312	0.331675	-0.0222257	0	0	-0.36275	-0.105771	-0.224577	0.443124	0.320417	0	0	-0.247255	0.0457585	-0.238249	-0.193189	-0.194121	0.0841034	0.644731	0.51995	0	0	0.0942611	-0.406174	0.208352	0.715383	1.37571	0	0
1.49	-0.146207	1.45284	-1.34117	1.0305	-0.00207404	0.915139	0.299072	-0.0644545	-0.365737	0.355786	-0.0147213	0	0	-0.341122	-0.123717	-0.227839	0.498043	0.29704	0	0	-0.239867	0.0525528	-0.239079	-0.196774	-0.196164	0.0868561	0.64164	0.517118	0	0	0.0839446	-0.40111	0.204127	0.714575	1.37572	0	0
1.5	-0.194541	1.45828	-1.29425	1.02786	-0.0138314	0.915534	0.302078	-0.0572996	-0.359789	0.374649	-0.00430425	0	0	-0.312726	-0.141588	-0.228574	0.557661	0.265699	0	0	-0.229882	0.0582145	-0.238274	-0.200693	-0.198277	0.0907011	0.639102	0.513048	0	0	0.0727603	-0.396574	0.200737	0.7147	1.37503	0	0
1.51	-0.255947	1.46642	-1.23523	1.02507	-0.0253015	0.915648	0.305634	-0.0488362	-0.356043	0.386659	0.00750074	0	0	-0.276488	-0.159583	-0.225633	0.621697	0.225529	0	0	-0.216742	0.0633364	-0.23662	-0.205	-0.20107	0.0971306	0.637896	0.50522	0	0	0.0609499	-0.392268	0.197675	0.715775	1.37321	0	0
1.52	-0.330469	1.47537	-1.16362	1.02226	-0.0364681	0.915588	0.307568	-0.0392805	-0.353549	0.391175	0.0186208	0	0	-0.23601	-0.176383	-0.217376	0.686028	0.176722	0	0	-0.202558	0.0680603	-0.234216	-0.209992	-0.205006	0.106782	0.639359	0.49213	0	0	0.0493554	-0.388383	0.19604	0.717906	1.36967	0	0
1.53	-0.41706	1.48271	-1.08016	1.01949	-0.0473818	0.915528	0.306038	-0.0287251	-0.352153	0.390102	0.0284907	0	0	-0.195329	-0.19174	-0.204658	0.747964	0.124017	0	0	-0.189943	0.0731121	-0.230848	-0.21564	-0.20922	0.114928	0.643483	0.481039	0	0	0.0391572	-0.385068	0.197372	0.720183	1.3657	0	0
1.54	-0.526939	1.48769	-0.973462	1.01678	-0.058144	0.915461	0.302717	-0.016734	-0.351756	0.387588	0.0386559	0	0	-0.154786	-0.207604	-0.190396	0.808743	0.0733056	0	0	-0.178674	0.0798858	-0.227025	-0.221693	-0.214267	0.122602	0.650128	0.470076	0	0	0.0294668	-0.38174	0.199441	0.722871	1.36258	0	0
1.55	-0.647574	1.48895	-0.855753	1.01423	-0.068727	0.915544	0.2976	-0.00354688	-0.350781	0.386558	0.0504674	0	0	-0.115933	-0.224074	-0.176011	0.868521	0.0331805	0	0	-0.170103	0.0886962	-0.22259	-0.22793	-0.219968	0.128331	0.658872	0.461275	0	0	0.0212058	-0.377846	0.201707	0.725218	1.36101	0	0
1.56	-0.728668	1.48588	-0.777497	1.01184	-0.0792294	0.91614	0.287778	0.00925903	-0.347633	0.38698	0.0628186	0	0	-0.0832814	-0.238741	-0.162933	0.923373	0.0113503	0	0	-0.16709	0.0974051	-0.217472	-0.233215	-0.225085	0.130711	0.666809	0.457574	0	0	0.0146685	-0.373508	0.20334	0.726818	1.36117	0	0
1.57	-0.774825	1.4817	-0.734161	1.00957	-0.0896309	0.917042	0.275889	0.0203629	-0.342903	0.388449	0.0750683	0	0	-0.0538176	-0.250184	-0.150215	0.973318	0.00524538	0	0	-0.166851	0.104572	-0.21203	-0.238417	-0.230177	0.132855	0.675754	0.452924	0	0	0.00902612	-0.369262	0.205426	0.72794	1.36191	0	0
1.58	-0.769522	1.47749	-0.743421	1.00727	-0.0998228	0.918448	0.260525	0.0282708	-0.336281	0.389395	0.0861082	0	0	-0.0294129	-0.256937	-0.13968	1.01755	0.00958104	0	0	-0.170924	0.107891	-0.205269	-0.24213	-0.233641	0.132703	0.682876	0.44863	0	0	0.00484987	-0.365597	0.207949	0.728313	1.36346	0	0
1.59	-0.730625	1.47404	-0.787531	1.00486	-0.109791	0.92026	0.2426	0.033454	-0.328316	0.388364	0.0954541	0	0	-0.00815641	-0.259871	-0.13137	1.05833	0.0219198	0	0	-0.177695	0.107315	-0.197329	-0.244188	-0.235082	0.129961	0.687207	0.445661	0	0	0.00185355	-0.362483	0.210637	0.727628	1.36535	0	0
1.6	-0.68011	1.47151	-0.844322	1.00235	-0.119606	0.92228	0.223335	0.0372028	-0.320019	0.3843	0.102928	0	0	0.0118518	-0.260185	-0.1248	1.09554	0.0412465	0	0	-0.184908	0.104011	-0.188501	-0.244736	-0.23547	0.127502	0.688302	0.443179	0	0	-0.000669799	-0.359645	0.213392	0.726003	1.36732	0	0
1.61	-0.633135	1.4701	-0.898065	0.999744	-0.129341	0.924313	0.203805	0.0404539	-0.312358	0.376851	0.108662	0	0	0.0321144	-0.259128	-0.120048	1.12726	0.0622288	0	0	-0.19078	0.0991375	-0.17938	-0.244594	-0.23496	0.125085	0.686839	0.439991	0	0	-0.00335503	-0.356937	0.215979	0.723652	1.36958	0	0
1.62	-0.584758	1.46963	-0.953334	0.997113	-0.138972	0.926348	0.184011	0.0425823	-0.305849	0.367213	0.113806	0	0	0.0522841	-0.256788	-0.117218	1.15249	0.0789951	0	0	-0.195562	0.0926995	-0.17078	-0.244088	-0.233769	0.123006	0.684057	0.437779	0	0	-0.00664335	-0.354345	0.217345	0.72129	1.37127	0	0
1.63	-0.537683	1.47032	-1.00692	0.994579	-0.148412	0.928297	0.164858	0.0436727	-0.300506	0.35597	0.118402	0	0	0.0736934	-0.253632	-0.115624	1.17277	0.0933168	0	0	-0.198961	0.08531	-0.163055	-0.243408	-0.232203	0.121188	0.680524	0.435683	0	0	-0.0102181	-0.351874	0.21822	0.718976	1.37253	0	0
1.64	-0.491523	1.47205	-1.05905	0.992145	-0.15769	0.930136	0.146707	0.0437762	-0.296192	0.34392	0.122477	0	0	0.0964227	-0.2496	-0.114561	1.18838	0.106021	0	0	-0.200964	0.07726	-0.156288	-0.242521	-0.230613	0.121089	0.675938	0.433089	0	0	-0.014219	-0.349674	0.2189	0.71665	1.3738	0	0
1.65	-0.447229	1.47447	-1.1089	0.989802	-0.166853	0.931859	0.129447	0.0434648	-0.292199	0.331081	0.125998	0	0	0.119969	-0.244751	-0.113684	1.19919	0.117575	0	0	-0.201791	0.0691241	-0.149919	-0.242188	-0.229052	0.121904	0.671144	0.430024	0	0	-0.0184786	-0.347688	0.219743	0.714438	1.37505	0	0
1.66	-0.40292	1.47732	-1.15862	0.987564	-0.175908	0.933455	0.112785	0.0428659	-0.288232	0.31734	0.128608	0	0	0.143676	-0.239256	-0.113545	1.20527	0.128415	0	0	-0.201777	0.0610419	-0.143734	-0.242646	-0.227667	0.123161	0.666768	0.426444	0	0	-0.022911	-0.345721	0.220342	0.712566	1.37596	0	0
1.67	-0.356963	1.48019	-1.21022	0.985418	-0.184835	0.93496	0.0966197	0.0419629	-0.283984	0.30332	0.130645	0	0	0.166859	-0.23359	-0.114981	1.20685	0.138154	0	0	-0.201604	0.0531641	-0.137425	-0.243681	-0.226833	0.125513	0.663195	0.422425	0	0	-0.0274528	-0.343672	0.220244	0.711235	1.37615	0	0
1.68	-0.303259	1.48296	-1.26951	0.983404	-0.19365	0.936424	0.0805262	0.0400804	-0.280258	0.289309	0.132246	0	0	0.188831	-0.227748	-0.118882	1.20339	0.14779	0	0	-0.201631	0.0451224	-0.131384	-0.245127	-0.226314	0.128173	0.66059	0.418802	0	0	-0.0321055	-0.341525	0.219251	0.710209	1.37548	0	0
